<?xml version="1.0" encoding="UTF-8"?>
<svg width="23px" height="20px" viewBox="0 0 23 20" version="1.1" xmlns="http://www.w3.org/2000/svg" xmlns:xlink="http://www.w3.org/1999/xlink">
    <!-- Generator: Sketch 50.2 (55047) - http://www.bohemiancoding.com/sketch -->
    <title>home</title>
    <desc>Created with Sketch.</desc>
    <defs></defs>
    <g id="desktop" stroke="none" stroke-width="1" fill="none" fill-rule="evenodd">
        <g transform="translate(-80.000000, -262.000000)" fill="#FFFFFF" fill-rule="nonzero" id="icon-home">
            <g transform="translate(80.000000, 262.000000)">
                <path d="M0.574688922,11.4902792 C0.436694051,11.4902792 0.29869928,11.4456184 0.189453303,11.3562969 C-0.0462878472,11.1641518 -0.0646871433,10.8359471 0.149204811,10.6230295 L10.3021744,0.48815251 C10.6172625,0.173449935 11.0427466,0 11.5004294,0 C11.9569623,0 12.3824463,0.173449935 12.6986845,0.48815251 L22.851654,10.6230295 C23.064396,10.8359471 23.0459967,11.1641518 22.8114055,11.3562969 C22.5768143,11.5484421 22.2122779,11.5318241 21.9995359,11.3199452 L11.8465664,1.18506812 C11.75227,1.09055348 11.6292246,1.03862236 11.5015794,1.03862236 C11.3739341,1.03862236 11.2508888,1.09055348 11.1565923,1.18506812 L1.00362283,11.3199452 C0.889777055,11.433155 0.733382988,11.4913178 0.576988821,11.4913178 L0.574688922,11.4902792 Z M17.8240424,19.7992581 L13.2242148,19.7992581 C12.9068267,19.7992581 12.6492364,19.5666067 12.6492364,19.279947 L12.6492364,15.6447686 L10.3493226,15.6447686 L10.3493226,19.279947 C10.3493226,19.5666067 10.0917322,19.7992581 9.77434408,19.7992581 L5.17451655,19.7992581 C4.22350215,19.7992581 3.44958111,19.1002652 3.44958111,18.2413245 L3.44958111,9.93234566 C3.44958111,9.64568588 3.70717146,9.41303448 4.02455959,9.41303448 C4.34194772,9.41303448 4.59953807,9.64568588 4.59953807,9.93234566 L4.59953807,18.2413245 C4.59953807,18.5279844 4.85712842,18.7606357 5.17451655,18.7606357 L9.1993657,18.7606357 L9.1993657,15.1254575 C9.1993657,14.8387977 9.45695604,14.6061463 9.77434408,14.6061463 L13.2242148,14.6061463 C13.5416029,14.6061463 13.7991932,14.8387977 13.7991932,15.1254575 L13.7991932,18.7606357 L17.8240424,18.7606357 C18.1414305,18.7606357 18.3990209,18.5279844 18.3990209,18.2413245 L18.3990209,9.93234566 C18.3990209,9.64568588 18.6566112,9.41303448 18.9739993,9.41303448 C19.2913874,9.41303448 19.5489777,9.64568588 19.5489777,9.93234566 L19.5489777,18.2413245 C19.5489777,19.1002652 18.7750568,19.7992581 17.8240424,19.7992581 Z"></path>
            </g>
        </g>
    </g>
</svg>