<?xml version="1.0" encoding="UTF-8"?>
<svg width="20px" height="20px" viewBox="0 0 20 20" version="1.1" xmlns="http://www.w3.org/2000/svg" xmlns:xlink="http://www.w3.org/1999/xlink">
    <!-- Generator: Sketch 50.2 (55047) - http://www.bohemiancoding.com/sketch -->
    <title>time</title>
    <desc>Created with Sketch.</desc>
    <defs></defs>
    <g id="desktop" stroke="none" stroke-width="1" fill="none" fill-rule="evenodd">
        <g transform="translate(-80.000000, -310.000000)" fill="#FFFFFF" fill-rule="nonzero" id="icon_clock">
            <g transform="translate(80.000000, 310.000000)">
                <path d="M9.88235297,0.470588235 C4.68304531,0.470588235 0.470588264,4.68304528 0.470588264,9.88235294 C0.470588264,15.0816606 4.68304531,19.2941176 9.88235297,19.2941176 C15.0816606,19.2941176 19.2941177,15.0816606 19.2941177,9.88235294 C19.2941177,4.68304528 15.0816606,0.470588235 9.88235297,0.470588235 Z M9.88235297,18.3673225 C5.19451393,18.3673225 1.39738343,14.570192 1.39738343,9.88235294 C1.39738343,5.1945139 5.19451393,1.3973834 9.88235297,1.3973834 C14.570192,1.3973834 18.3673225,5.1945139 18.3673225,9.88235294 C18.3673225,14.570192 14.570192,18.3673225 9.88235297,18.3673225 Z M13.3646483,12.2825842 L10.5055428,10.2024566 L10.5055428,4.30560272 L9.25916312,4.30560272 L9.25916312,10.8419801 L12.631418,13.2927236 L13.3646483,12.2825842 Z" id="Shape"></path>
            </g>
        </g>
    </g>
</svg>