<?xml version="1.0" encoding="UTF-8"?>
<svg width="54px" height="41px" viewBox="0 0 54 41" version="1.1" xmlns="http://www.w3.org/2000/svg" xmlns:xlink="http://www.w3.org/1999/xlink">
    <!-- Generator: Sketch 50.2 (55047) - http://www.bohemiancoding.com/sketch -->
    <title>hamburger</title>
    <desc>Created with Sketch.</desc>
    <defs></defs>
    <g id="mobile" stroke="none" stroke-width="1" fill="none" fill-rule="evenodd">
        <g id="HG-concept" transform="translate(-34.000000, -132.000000)" fill="#FFFFFF" fill-rule="nonzero">
            <g id="hamburger" transform="translate(34.000000, 132.000000)">
                <g id="Group">
                    <path d="M3.375,6.83333333 L50.625,6.83333333 C52.48125,6.83333333 54,5.29583333 54,3.41666667 C54,1.5375 52.48125,0 50.625,0 L3.375,0 C1.51875,0 0,1.5375 0,3.41666667 C0,5.29583333 1.51875,6.83333333 3.375,6.83333333 Z" id="Shape"></path>
                    <path d="M50.625,17.0833333 L3.375,17.0833333 C1.51875,17.0833333 0,18.6208333 0,20.5 C0,22.3791667 1.51875,23.9166667 3.375,23.9166667 L50.625,23.9166667 C52.48125,23.9166667 54,22.3791667 54,20.5 C54,18.6208333 52.48125,17.0833333 50.625,17.0833333 Z" id="Shape"></path>
                    <path d="M50.625,34.1666667 L3.375,34.1666667 C1.51875,34.1666667 0,35.7041667 0,37.5833333 C0,39.4625 1.51875,41 3.375,41 L50.625,41 C52.48125,41 54,39.4625 54,37.5833333 C54,35.7041667 52.48125,34.1666667 50.625,34.1666667 Z" id="Shape"></path>
                </g>
            </g>
        </g>
    </g>
</svg>