<?xml version="1.0" encoding="UTF-8"?>
<svg width="268px" height="105px" viewBox="0 0 268 105" version="1.1" xmlns="http://www.w3.org/2000/svg" xmlns:xlink="http://www.w3.org/1999/xlink">
    <!-- Generator: Sketch 50.2 (55047) - http://www.bohemiancoding.com/sketch -->
    <title>logo</title>
    <desc>Created with Sketch.</desc>
    <defs>
        <linearGradient x1="18.5796984%" y1="33.8161132%" x2="-6.62131515%" y2="55.5859292%" id="linearGradient-1">
            <stop stop-color="#000000" offset="0%"></stop>
            <stop stop-color="#000000" stop-opacity="0" offset="22.2678829%"></stop>
            <stop stop-color="#000000" stop-opacity="0" offset="79.468479%"></stop>
            <stop stop-color="#000000" offset="100%"></stop>
        </linearGradient>
        <polygon id="path-2" points="79.8744436 0.541178535 84.6902493 0.541178535 84.6902493 22.1882374 79.8744436 22.1882374 69.5945506 8.62398591 69.5945506 21.3670152 64.7787449 15.5336616 64.7787449 0.541178535 69.2858451 0.541178535 79.8744436 14.4770533"></polygon>
    </defs>
    <g id="mobile" stroke="none" stroke-width="1" fill="none" fill-rule="evenodd">
        <g id="HG-Login-1" transform="translate(-241.000000, -259.000000)">
            <g id="logo" transform="translate(241.000000, 259.000000)">
                <g id="Group-4" transform="translate(118.000000, 45.000000)">
                    <g id="Path">
                        <use fill="#FF8AC1" xlink:href="#path-2"></use>
                        <use fill-opacity="0.200000003" fill="url(#linearGradient-1)" xlink:href="#path-2"></use>
                    </g>
                    <path d="M11.3281444,18.3554633 C13.7206937,18.3554633 15.6763134,17.3905122 17.1950622,15.4605809 L20.3157631,18.7372061 C17.8399946,21.5790829 14.9221684,23 11.562197,23 C8.2022255,23 5.43523167,21.9184064 3.26113248,19.7551867 C1.08703329,17.5919671 0,14.8614734 0,11.5636238 C0,8.2657742 1.10783775,5.51407281 3.3235465,3.30843707 C5.53925524,1.10280133 8.24903679,0 11.4529724,0 C15.0313941,0 18.027237,1.38910552 20.4405911,4.16735823 L17.4135112,7.66666667 C15.8739577,5.71552736 13.959947,4.73997234 11.6714215,4.73997234 C9.84060113,4.73997234 8.27506515,5.34969423 6.97476659,6.56915629 C5.67446804,7.78861836 5.02432851,9.43221649 5.02432851,11.5 C5.02432851,13.5677835 5.63806022,15.2272874 6.86554206,16.4785615 C8.0930239,17.7298357 9.58054314,18.3554633 11.3281444,18.3554633 Z M40.3818701,11.5159059 C40.3818701,9.52235057 39.7577362,7.82573314 38.5094496,6.42600277 C37.2611629,5.02627239 35.7268337,4.3264177 33.9064157,4.3264177 C32.0859977,4.3264177 30.5516684,5.02627239 29.3033818,6.42600277 C28.0550952,7.82573314 27.4309612,9.51704864 27.4309612,11.5 C27.4309612,13.4829514 28.0550952,15.1689649 29.3033818,16.5580913 C30.5516684,17.9472176 32.0859977,18.6417704 33.9064157,18.6417704 C35.7268337,18.6417704 37.2611629,17.9472176 38.5094496,16.5580913 C39.7577362,15.1689649 40.3818701,13.4882533 40.3818701,11.5159059 Z M42.0358416,19.6915629 C39.8305353,21.8759906 37.1155526,22.9681881 33.8908122,22.9681881 C30.6660717,22.9681881 27.9510891,21.8706887 25.7457827,19.675657 C23.5404764,17.4806253 22.4378397,14.7501316 22.4378397,11.4840941 C22.4378397,8.21805651 23.5404764,5.48756284 25.7457827,3.29253112 C27.9510891,1.0974994 30.6660717,0 33.8908122,0 C37.1155526,0 39.8305353,1.0974994 42.0358416,3.29253112 C44.241148,5.48756284 45.3437846,8.21805651 45.3437846,11.4840941 C45.3437846,14.7501316 44.241148,17.4859272 42.0358416,19.6915629 Z M69.5916309,20.5905542 L69.5916309,22.7455048 L64.7233374,22.7455048 L54.3314033,8.81189488 L54.3314033,22.7455048 L49.4631098,22.7455048 L49.4631098,0.508990318 L54.0193332,0.508990318 L64.7233374,14.824343 L69.5916309,20.5905542 Z M80.0113466,0.508990318 L84.8796401,0.508990318 L84.8796401,22.7455048 L80.0113466,22.7455048 L69.6194125,8.81189488 L64.751119,3.36108736 L64.751119,0.508990318 L69.3073424,0.508990318 L80.0113466,14.824343 L80.0113466,0.508990318 Z M107.059155,0.508990318 L107.059155,4.93084371 L96.1991159,4.93084371 L96.1991159,9.51175657 L105.96691,9.51175657 L105.96691,13.7427386 L96.1991159,13.7427386 L96.1991159,18.3554633 L107.402432,18.3554633 L107.402432,22.7455048 L91.3308224,22.7455048 L91.3308224,0.508990318 L107.059155,0.508990318 Z M121.757657,18.3554633 C124.150206,18.3554633 126.105826,17.3905122 127.624574,15.4605809 L130.745275,18.7372061 C128.269507,21.5790829 125.351681,23 121.991709,23 C118.631738,23 115.864744,21.9184064 113.690645,19.7551867 C111.516545,17.5919671 110.429512,14.8614734 110.429512,11.5636238 C110.429512,8.2657742 111.53735,5.51407281 113.753059,3.30843707 C115.968767,1.10280133 118.678549,0 121.882485,0 C125.460906,0 128.456749,1.38910552 130.870103,4.16735823 L127.843023,7.66666667 C126.30347,5.71552736 124.389459,4.73997234 122.100934,4.73997234 C120.270113,4.73997234 118.704577,5.34969423 117.404279,6.56915629 C116.10398,7.78861836 115.453841,9.43221649 115.453841,11.5 C115.453841,13.5677835 116.067572,15.2272874 117.295054,16.4785615 C118.522536,17.7298357 120.010055,18.3554633 121.757657,18.3554633 Z M143.821012,4.80359613 L143.821012,22.7455048 L138.952719,22.7455048 L138.952719,4.80359613 L132.773731,4.80359613 L132.773731,0.508990318 L150,0.508990318 L150,4.80359613 L143.821012,4.80359613 Z" id="Connect" fill="#FFFFFF"></path>
                </g>
                <path d="M99,0.664556962 L99,104.369517" id="Line-2" stroke="#CCCCCC" opacity="0.5" stroke-linecap="square"></path>
                <g id="Group-5" transform="translate(0.000000, 32.000000)" fill="#FFFFFF">
                    <path d="M0.289333333,1.73066667 L9.29066667,1.73066667 L9.29066667,17.44 L25.86,17.44 L25.86,1.73066667 L34.8613333,1.73066667 L34.8613333,42.6666667 L25.86,42.6666667 L25.86,25.008 L9.29066667,25.008 L9.29066667,42.6666667 L0.289333333,42.6666667 L0.289333333,1.73066667 Z M72.3573333,38.0226667 C70.751992,40.086677 68.9746764,41.5295514 67.0253333,42.3513333 C65.0759903,43.1731152 63.1075655,43.584 61.12,43.584 C57.9857621,43.584 55.1669014,43.0393388 52.6633333,41.95 C50.1597653,40.8606612 48.0480086,39.360454 46.328,37.4493333 C44.6079914,35.5382127 43.2893379,33.2926796 42.372,30.7126667 C41.4546621,28.1326538 40.996,25.3520149 40.996,22.3706667 C40.996,19.3128736 41.4546621,16.474902 42.372,13.8566667 C43.2893379,11.2384314 44.6079914,8.95467641 46.328,7.00533333 C48.0480086,5.05599025 50.1597653,3.52711665 52.6633333,2.41866667 C55.1669014,1.31021668 57.9857621,0.756 61.12,0.756 C63.2222327,0.756 65.2575457,1.07133018 67.226,1.702 C69.1944543,2.33266982 70.9717698,3.25954944 72.558,4.48266667 C74.1442302,5.70578389 75.4533282,7.21554657 76.4853333,9.012 C77.5173385,10.8084534 78.1479989,12.8724328 78.3773333,15.204 L69.7773333,15.204 C69.2422195,12.9106552 68.2102299,11.1906724 66.6813333,10.044 C65.1524368,8.8973276 63.2986776,8.324 61.12,8.324 C59.0942121,8.324 57.3742293,8.71577386 55.96,9.49933333 C54.5457707,10.2828928 53.3991155,11.3339934 52.52,12.6526667 C51.6408845,13.9713399 51.0006687,15.4715471 50.5993333,17.1533333 C50.197998,18.8351195 49.9973333,20.5742132 49.9973333,22.3706667 C49.9973333,24.0906753 50.197998,25.7628808 50.5993333,27.3873333 C51.0006687,29.0117859 51.6408845,30.4737713 52.52,31.7733333 C53.3991155,33.0728954 54.5457707,34.1144405 55.96,34.898 C57.3742293,35.6815595 59.0942121,36.0733333 61.12,36.0733333 C64.1013482,36.0733333 66.4042141,35.318452 68.0286667,33.8086667 C69.6531192,32.2988813 70.5991098,30.110681 70.8666667,27.244 L61.808,27.244 L61.808,20.536 L79.008,20.536 L79.008,42.6666667 L73.2746667,42.6666667 L72.3573333,38.0226667 Z" id="HG"></path>
                </g>
            </g>
        </g>
    </g>
</svg>