<?xml version="1.0" encoding="UTF-8"?>
<svg width="20px" height="20px" viewBox="0 0 20 20" version="1.1" xmlns="http://www.w3.org/2000/svg" xmlns:xlink="http://www.w3.org/1999/xlink">
    <!-- Generator: Sketch 50.2 (55047) - http://www.bohemiancoding.com/sketch -->
    <title>signout</title>
    <desc>Created with Sketch.</desc>
    <defs></defs>
    <g id="desktop" stroke="none" stroke-width="1" fill="none" fill-rule="evenodd">
        <g transform="translate(-82.000000, -361.000000)" fill="#FFFFFF" fill-rule="nonzero" id="icon-sign-out">
            <g transform="translate(82.000000, 361.000000)">
                <path d="M3.08236281e-08,18 L3.08236281e-08,2 C3.08236281e-08,0.897333333 0.897333364,0 2.00000003,0 L10,0 L10,1.33333333 L2.00000003,1.33333333 C1.63200003,1.33333333 1.33333336,1.632 1.33333336,2 L1.33333336,18 C1.33333336,18.368 1.63200003,18.6666667 2.00000003,18.6666667 L10,18.6666667 L10,20 L2.00000003,20 C0.897333364,20 3.08236281e-08,19.1026667 3.08236281e-08,18 Z M19.8053315,10.4706667 L15.8053315,14.4706667 C15.5453315,14.7306667 15.1226648,14.7306667 14.8626648,14.4706667 C14.7333315,14.3413333 14.6679981,14.1693333 14.6679981,14 C14.6679981,13.8306667 14.7319981,13.66 14.8626648,13.5293333 L17.7239981,10.6666667 L6.41666479,10.6666667 C6.04866479,10.6666667 5.74999812,10.368 5.74999812,10 C5.74999812,9.632 6.04866479,9.33333333 6.41666479,9.33333333 L17.7239981,9.33333333 L14.8626648,6.47066667 C14.6026648,6.21066667 14.6026648,5.788 14.8626648,5.528 C15.1226648,5.268 15.5453315,5.268 15.8053315,5.528 L19.8053315,9.528 C20.0653315,9.788 20.0653315,10.2106667 19.8053315,10.4706667 Z"></path>
            </g>
        </g>
    </g>
</svg>